
<region>
sample=../Samples/snaremic/snareoff/snaremic_snareoff_crossstick_vl1.flac
hivel=12

<region>
sample=../Samples/snaremic/snareoff/snaremic_snareoff_crossstick_vl2.flac
lovel=13
hivel=25

<region>
sample=../Samples/snaremic/snareoff/snaremic_snareoff_crossstick_vl3.flac
lovel=26
hivel=37

<region>
sample=../Samples/snaremic/snareoff/snaremic_snareoff_crossstick_vl4.flac
lovel=38
hivel=50

<region>
sample=../Samples/snaremic/snareoff/snaremic_snareoff_crossstick_vl5.flac
lovel=51
hivel=63

<region>
sample=../Samples/snaremic/snareoff/snaremic_snareoff_crossstick_vl6.flac
lovel=64
hivel=75

<region>
sample=../Samples/snaremic/snareoff/snaremic_snareoff_crossstick_vl7.flac
lovel=76
hivel=88

<region>
sample=../Samples/snaremic/snareoff/snaremic_snareoff_crossstick_vl8.flac
lovel=89
hivel=101

<region>
sample=../Samples/snaremic/snareoff/snaremic_snareoff_crossstick_vl9.flac
lovel=102
hivel=113

<region>
sample=../Samples/snaremic/snareoff/snaremic_snareoff_crossstick_vl10.flac
lovel=114
hivel=127